<svg id="ëÎÓÈ_1" data-name="ëÎÓÈ 1" xmlns="http://www.w3.org/2000/svg" viewBox="0 0 1563.22 1366.25">
  <defs>
    <style>
      .cls-1{fill:none;stroke:#000;stroke-miterlimit:10;stroke-width:6px}
    </style>
  </defs>
  <path class="cls-1" d="M1516.4 765.19c34 43.17 46.21 96.16 48.34 152.21 3.3 86.81-46.72 179.12-148.12 199.84-22 4.49-30.89 3.73-67.91-6.49-2.07 18.28-2.7 36.84-6.48 54.73-11.77 55.7-34.82 105.3-83 139.29-30.16 21.27-64.21 32.73-101 34.69-33.11 1.77-66.21 1.46-98.8-6.18-1.73-.4-3.65 0-6.41 0-2.42 18-4.22 36-7.36 53.82-11.58 65.66-33 127.31-75.13 180.3-24.26 30.5-42.36 63.71-45.75 103.56-.29 3.39-4.45 8.06-7.76 9.07-2.65.82-7.32-2.39-10-5-2.22-2.13-3.24-5.82-4.12-9-18.65-67.22-51.8-127-92-183.53a796.94 796.94 0 01-46.63-73.4 182.6 182.6 0 01-23.58-96.4c.09-2.52-.26-5.06-.45-8.35-36.49-5.34-69.68-18.7-101.3-36.64-62.28-35.33-93.9-90.5-102.57-159.72-4.67-37.31 7.79-70.4 31.43-99.36 2.06-2.52 4.15-5 6.65-8-43.2-18.11-63.48-55.53-81.73-94.12-26.28-55.57-36.33-113.77-24-174.75 1.74-8.67 5.18-17 8-26.13a34.5 34.5 0 00-4.45-2.47c-61.88-23.94-110.78-64.51-149.13-118-19.29-26.9-25.83-59-33.07-90.55-9.18-40-19.72-79.57-46.23-112.44C238 375 230.65 369 225.18 361.6c-2.59-3.49-2.36-9.06-3.41-13.69 5-.39 11.4-3 14.68-.82 36.4 24.08 77.1 32.06 119.73 33.9 84.73 3.68 166.14 19.38 238.74 66.69 15.49 10.1 15.55 9.72 28.24-3.3 48.91-50.24 105.29-87 176.11-98.05 56.08-8.79 109-1.29 157.32 29.79 6.5 4.17 9.46 1.87 13.88-2.54 38.42-38.28 84.07-58.23 139-52.78 38.78 3.85 74 18.9 108.1 36.78 54.41 28.53 96.3 69.28 122.12 125.63a37.3 37.3 0 002 4 11.72 11.72 0 002 1.92c6.49-4.7 13-9.64 19.67-14.23 45.93-31.45 97.86-47.47 152.23-53.29 40.09-4.29 80.84-3.33 121.28-3.14 36.84.16 73.73 2.8 109.48-8.9 6.23-2 11.66-6.51 17.9-8.48 4.29-1.36 9.34-.35 14-.4-.07 4.77.27 9.61-.41 14.29-.26 1.79-2.7 3.45-4.42 4.83-34.76 27.89-59 63.82-77.48 103.69-30.35 65.62-68.24 126.39-116 180.56-19 21.49-41.43 40.03-63.54 61.13z" transform="translate(-218.08 -316.91)"/>
  <path class="cls-1" d="M1478.21 564.31l-.12-.16c-16.42 1.24-25.74 13.39-36 23.8-14.44 14.65-28.46 29.71-42.66 44.6 29-5.31 56.53-7.68 84.07 2.13-47.64-7.91-92.31-6.67-122.81 38.8a2.15 2.15 0 001.1.87c51 10.75 95.48 34.3 134.53 68.65 2.29 2 8.81 2.35 11.24.58 14-10.28 29.1-19.93 40.73-32.62 20.79-22.71 41.13-46.23 58.46-71.61a1069.45 1069.45 0 0059.75-99.17c19-35.59 35.7-72.36 61.68-104.28-51.42 32-113.75 33.75-167.81 62.34l59.94 10.23c-3.39 1.67-3.74 2-4 2-6.24-.91-12.63-1.27-18.67-2.89-32.56-8.75-61.32-2.83-86.75 20.06-13.4 12-28.13 22.61-42.77 34.25 2.31 1.49 2.86 2.13 3.46 2.18 2.17.16 4.42.16 6.63.24z" transform="translate(-218.08 -316.91)"/>
  <path class="cls-1" d="M1204.29 730c4.12 10.22 8.41 18.93 11.2 28.11 24.08 79.37 10.2 153.59-31 224-21.51 36.7-50.89 63.69-92.68 75.68-3.45 1-5.86 5.2-9.28 6.84-3.84 1.85-8.28 3.42-12.45 3.39-5.59 0-11.2-2.67-16.77-2.55-21.87.44-43.73 1.82-65.6 2.16-6.17.09-8.48 1.63-9.23 7.81-4.21 35.11-15.54 68-31.41 99.47a36.44 36.44 0 00-3.94 15.89c.2 53.8 29.57 87.94 75.94 109.52 47.37 22 98 25.32 148.71 19.43 53.57-6.22 97.28-31.06 125.85-78.74 25.6-42.7 37.1-88.82 35-138.58-.23-5.46 2.34-13.12 6.32-16 3.07-2.2 11.14.25 15.7 2.86 16.08 9.22 33 13.59 51.34 11.16 53.49-7.06 94.82-33.86 119.79-81.34 39.76-75.63 34.19-153.72-8.89-223.75-57.81-94-180.4-139.47-299.24-71.85-3.23 1.81-6.08 4.21-9.36 6.49zM765.8 1286.42c8.61-1.92 25.84-3.84 41.64-9.63 75.51-27.69 118.68-85.17 142.88-159.14 4-12.31 6.06-25.27 9.07-37.91 2.39-10.1.06-16.06-11.84-16.8-9.95-.62-19.83-2.94-29.66-4.9-97-19.38-156.75-77.36-177.57-174.09-10.09-46.88-11.1-93.71 9.1-139 1.55-3.46.2-8.39-.34-12.57-2.47-19-8.34-38.31-6.75-57 1.38-16.24-4.48-23.44-16.81-29.11a212 212 0 00-24.75-10C655.09 622 610 625.63 566.84 644.8c-46.61 20.68-77.73 55.93-83.12 107.77-7.87 75.57 14.08 143.63 60.73 203.18 16.48 21 37.19 35.78 66.9 24.07 3.43-1.36 11.75 2 13.38 5.36 3.43 7-3.36 9.53-8.91 12.45-9.74 5.13-20.61 9.64-28.11 17.26-26 26.4-37.18 58.64-32.6 95.74 14.68 118.81 121.09 170.98 210.69 175.79z" transform="translate(-218.08 -316.91)"/>
  <path class="cls-1" d="M1192 714.9c41.82-26.82 87.76-39.7 136.94-42.65 3.59-.21 8.72-5.21 10-9 9.54-28.91 8.18-58.52 5-88.34-6.9-65.1-31.24-121.54-81.65-164.74-37.9-32.47-81.79-54.18-130-66.39-55.35-14-103.71 0-145 39.15-5.39 5.11-10.26 10.76-15.49 16-4.45 4.5-9.07 6-14.63 1.28-30.56-25.86-66.89-36.95-106-38.4-66.33-2.46-125 18.89-176.42 60.61-30.81 25-59.39 52-76.79 88.63-16 33.73-16.77 69.38-15 107.38 59-15.65 114.3-12.29 166.24 20.1 2.42-4.86 4.4-9.22 6.72-13.4 26.51-47.83 68.8-76.1 118.59-94.55 27.56-10.21 56.86-13.33 85.37-19.57 74-16.19 133.86 4.56 182.13 60.65 29.19 33.92 46.19 73.2 37.31 119.24-2.43 12.61 2.55 18.46 12.68 24zM762.89 761.63c-1.63 4.7-2.73 7.44-3.55 10.27-10.06 34.82-8.2 69.9-1.66 104.94 12.66 67.81 48.2 119.9 112.24 146.88 60.56 25.52 124.9 32.17 190.3 21.68 3.62-.58 8.27-5.27 9.33-9 1.68-5.84 1.51-12.53.78-18.7-4.64-39.32-23.38-71.33-56.74-91.66-30.93-18.85-64-34.73-97.26-49.11-59.97-25.84-115.01-57.54-153.44-115.3z" transform="translate(-218.08 -316.91)"/>
  <path class="cls-1" d="M1078.79 973.82c-1.72-39-13.74-74-34.13-106.37-19.14-30.33-48.16-49-78.31-66.32-28.75-16.53-56.7-34.1-79.42-58.84C853.55 706 840.28 663 848.1 614.79c3.41-21 12.17-41.24 18.31-61.19-22.37 9-43.94 23.14-63.31 40.73-50.75 46.09-57.71 110.85-18 166.65 21.79 30.63 50 54.32 82.9 71.47 30.9 16.11 63.43 29.1 95.15 43.66 47.5 21.82 92.26 47.01 115.64 97.71zM438.39 449.76c.66 3.05 1.09 6.18 2 9.15 8.1 26.18 15.86 52.48 24.76 78.39 2.14 6.25 7 12.9 12.53 16.4 19 12.07 38.84 22.83 58.19 34-32.73-65.83-47.17-108.22-44.87-134.15 12.53 56.19 28.58 110.75 70.06 156 2.91-25.84 3.12-49.55 8.79-71.86 5.76-22.66 16.9-44 26.06-66.78a15.84 15.84 0 00-2.57-2.05c-43.45-28.27-89.79-50.28-141.37-58-40.75-6.08-82-8.67-122.94-13.64-19-2.31-37.78-6.58-60.11-10.59l113.5 109 1.37-1.89q-7.21-26.37-14.45-52.72l3.79-1c1.58 5.64 2.71 11.45 4.81 16.88 6 15.45 8.56 34.55 19.37 45.25 18 17.82 41.39 30.21 62.51 44.89l2.7-2.77c-14.97-29.68-24.61-60.81-24.13-94.51zM920.7 1216.27c-1.65 1.88-2.62 3-3.55 4.07-39.27 46.82-87.37 78-149.53 83.88-6.16.59-8.89 3.35-8.16 9.22 2.22 17.62 3 35.64 7.35 52.73 8.71 34.1 29.19 62.46 48.87 90.9 33.27 48 66.41 96.12 87.13 151.37 2.29 6.11 4.75 12.16 7.13 18.23 11.3-61-2.22-120.29-8.22-180.09l-16.51 28.05-2.59-1.49c2.69-5.13 5.93-10.06 7.94-15.44 3.32-8.9 8.45-18.15 8.27-27.16-.68-33.24-3.22-66.45-5-99.15l-29.59 36.83-2.78-2.17c7.89-10.44 14.7-22 23.91-31.08 18.61-18.41 13.78-43.12 20.24-65.12-21.22 23-45.54 41-72.12 56.17 37.09-29.82 80.09-54.6 87.21-109.75z" transform="translate(-218.08 -316.91)"/>
  <path class="cls-1" d="M994.41 1410.27l-3.38 2.38c-37.32-46.91-68.33-96.87-74.79-158.84-26.44 85.41 8.81 156 53.57 224.44-37.63-41.13-56.63-90.87-67.79-144.5-1.82 54.52-5.92 109.17 26.51 158.38l-4.27 1.25c-4.46-8.87-8.91-17.74-14.71-29.29 5.1 51.92 14.81 100.3 9.39 147.34 11.9-17.86 24.59-37 37.41-56.08 8.1-12 17.41-23.35 24.46-36 32-57.17 47.6-119.11 52.47-184.09.5-6.59-1.42-9.82-7.89-12.28-47.66-18.12-83.29-48.33-97.86-99.22-.12-.43-1.22-.57-2.72-1.22-.84 3.71-2.53 7.29-2.29 10.74 1.12 16.27 1.33 32.79 4.51 48.69 6.78 33.8 24.72 62.71 43.27 91.14q12.11 18.62 24.11 37.2zM285.73 409.88c10.11 37.53 20.83 77.19 31.49 116.87 6.56 24.44 17.65 46.62 34 65.87C379.48 625.81 413 652.76 451 674c9 5 19 8.62 28.86 11.62 3.14 1 9.06-1 11.08-3.58 18.32-23.78 40.7-42.25 68.14-54.48 6.18-2.75 6.65-6.32 2.32-11.08-9.12-10.13-19.4-16.48-34.16-13.43-9.35 1.93-19.18 1.51-28.79 2.15l-.18-2.29 37.55-5.57c.36-1.11.71-2.22 1.06-3.33l-66.82-39.48-66.28 33-1.54-3 60.67-31.63c-22.78-14.49-43.31-27.71-64.1-40.5-2-1.21-5.53.36-8.36.38-12 .06-24 0-36.05 0V508h35.9zM1359.31 664.82l1.9 1.66c10.15-10.67 21.07-20.73 30.16-32.23a70.29 70.29 0 0012.46-25.06c2.7-10.27 3.08-21.29 3.41-32 .52-16.52.14-33.07.14-49.59 8.11 28.77 6.31 57.92 2.09 80.87 11.61-10.2 27.79-22.81 42-37.35 14.6-14.94 18.87-35.2 21.51-55.19 2.59-19.6 3.56-39.41 5.24-59.13 1 33.07 2.67 66.21-11.33 99.37 3-1.82 4.16-2.43 5.22-3.21 21.5-15.89 43.05-31.7 64.38-47.8a30.86 30.86 0 007.59-9.26c5.65-9.81 10.88-19.86 16.27-29.81l2.52 1.21-14.7 32.36c53.13-31.8 114.81-33 167.13-63-28.55 0-55.65 1.14-82.62-.25-48.09-2.48-95.88-2.19-143.2 7.95s-92.26 26-130.73 56.79c-6.55 5.25-8.89 9.79-6.53 18.68 9.18 34.62 14.44 69.93 12.35 105.88-.77 13.07-3.45 26.06-5.26 39.11zM1056.93 851.31c35.78 57.63 52.29 118.37 33.33 187 22.44-7.21 40-17.74 54.35-33.44 22.44-24.59 37.28-53.6 48.6-84.6 20-54.8 20.74-109.83 1.57-165a66.52 66.52 0 00-23.38-32.17c-11.26 28-27 51.9-48.19 71.42s-43.93 37.76-66.28 56.79zM1045.34 835.92c15.48-12.56 31-24.17 45.35-37 13.23-11.88 26.53-24.09 37.49-38 25.26-32 40.15-68.13 33-109.76-9.77-56.92-64.82-112.48-121.6-123.85-10.84-2.17-22.07-2.42-33.13-3.56 36.26 25 51.16 59.87 54.26 100.79 2.54 33.44-2.68 66.1-14.44 97.42-9.79 26.07-21.08 51.57-31.2 77.51-1.25 3.23-.9 9.17 1.25 11.27 9 8.76 18.9 16.56 29 25.18z" transform="translate(-218.08 -316.91)"/>
  <path class="cls-1" d="M948.84 645.64c18.09-43.56 41.87-55.24 92-43.33-7-13.77-11.52-26.43-19.14-36.8-32.44-44.18-90.38-41.22-119.29-19.62C871.71 568.8 856.4 626 868.17 664c22-26.72 48.49-34 80.67-18.36z" transform="translate(-218.08 -316.91)"/>
  <path class="cls-1" d="M995.57 787.36l4.89-.18c9.58-24.14 20.73-47.8 28.27-72.56 6.65-21.85 10.23-44.78 13.33-67.49 2.06-15.1-9-27.84-23.92-31.72-22.4-5.81-48.93 14.76-50.78 39.67-.36 4.29-.36 9.39 1.64 12.92 12.44 22.37 16.09 46.83 18.91 71.72 1.78 16 5.09 31.77 7.66 47.64zM975.85 784.75c-4.73-29.53-8.18-57-13.93-84.06-2.3-10.82-8.18-21.72-15-30.55-15.2-19.56-44.91-18.71-59.83 1-7.08 9.37-12.17 20.79-5.83 32 21.29 37.59 56 60.13 94.59 81.61z" transform="translate(-218.08 -316.91)"/>
  <path d="M1478.21 564.31l72.76-5.68.2 3-73.08 2.57z" transform="translate(-218.08 -316.91)"/>
</svg>
